<?xml version="1.0" encoding="utf-8"?>
<!-- Generator: Adobe Illustrator 22.0.1, SVG Export Plug-In . SVG Version: 6.00 Build 0)  -->
<svg version="1.1"
	 id="Слой_1" xmlns:cc="http://creativecommons.org/ns#" xmlns:dc="http://purl.org/dc/elements/1.1/" xmlns:inkscape="http://www.inkscape.org/namespaces/inkscape" xmlns:rdf="http://www.w3.org/1999/02/22-rdf-syntax-ns#" xmlns:sodipodi="http://sodipodi.sourceforge.net/DTD/sodipodi-0.dtd" xmlns:svg="http://www.w3.org/2000/svg"
	 xmlns="http://www.w3.org/2000/svg" xmlns:xlink="http://www.w3.org/1999/xlink" x="0px" y="0px" viewBox="0 0 22.7 18.4"
	 style="enable-background:new 0 0 22.7 18.4;" xml:space="preserve">
<g transform="translate(0,-952.36218)">
	<path style="fill:none;stroke:#000000;stroke-width:2;stroke-miterlimit:10;" d="M1.5,953.4c-0.3,0-0.5,0.3-0.5,0.5
		c0,0.1,0,0.1,0.1,0.2l3.9,7.5l-3.9,7.5c0,0.1-0.1,0.1-0.1,0.2c0,0.2,0.2,0.5,0.5,0.5c0.1,0,0.1,0,0.2,0l19.7-7.8
		c0.2-0.1,0.3-0.3,0.3-0.4c0-0.2-0.1-0.4-0.3-0.4l-19.7-7.8C1.6,953.4,1.5,953.4,1.5,953.4z"/>
</g>
<line style="fill:none;stroke:#000000;stroke-width:2;stroke-miterlimit:10;" x1="4.9" y1="9.2" x2="21.7" y2="9.2"/>
</svg>
