<svg height="464pt" viewBox="-56 0 464 464" width="464pt" xmlns="http://www.w3.org/2000/svg"><path d="m104 232-32 8-64-232 32-8zm0 0" fill="#75cfcb"/><path d="m320 464h-288l-16-176h320zm0 0" fill="#ffd485"/><path d="m48 208h256c17.671875 0 32 14.328125 32 32v16h-320v-16c0-17.671875 14.328125-32 32-32zm0 0" fill="#f57099"/><path d="m88 160h176c22.089844 0 40 17.910156 40 40v8h-256v-8c0-22.089844 17.910156-40 40-40zm0 0" fill="#dc93bf"/><path d="m248 160h-152s-16-80 72-80c35.199219 0 53.761719-10.238281 63.359375-22.558594 6.769531-9.015625 10.21875-20.09375 9.761719-31.363281 0-.078125 0-.078125-.082032-.15625-.042968-3.25-.363281-6.488281-.960937-9.683594 4 5.363281 70.082031 97.203125 7.921875 143.761719zm0 0" fill="#f88d9a"/><path d="m238.878906 102.398438c-9.097656 12.128906-23.761718 18.769531-38.878906 17.601562v-16c9.871094 1.0625 19.597656-3.015625 25.761719-10.800781 5.921875-10.921875 7.898437-23.550781 5.597656-35.757813 6.769531-9.015625 10.21875-20.09375 9.761719-31.363281 4.160156 13.683594 14.078125 52.960937-2.242188 76.320313zm0 0" fill="#f44d7d"/><path d="m168 104h16v16h-16zm0 0" fill="#f44d7d"/><path d="m0 256h352v32h-352zm0 0" fill="#75cfcb"/><g fill="#d32a45"><path d="m330.183594 352h-106.183594c-8.074219-19.378906-27.007812-32-48-32s-39.925781 12.621094-48 32h-106.183594l4.367188 48h101.816406c8.074219 19.378906 27.007812 32 48 32s39.925781-12.621094 48-32h101.816406zm0 0"/><path d="m280 424h16v16h-16zm0 0"/><path d="m40 312h16v16h-16zm0 0"/><path d="m72 312h16v16h-16zm0 0"/></g><path d="m256 256h32v64c0 8.835938-7.164062 16-16 16s-16-7.164062-16-16zm0 0" fill="#f88d9a"/></svg>